<?xml version="1.0" encoding="UTF-8"?>
<svg id="_レイヤー_1" xmlns="http://www.w3.org/2000/svg" version="1.1" viewBox="0 0 1920 6000">
  <!-- Generator: Adobe Illustrator 29.3.0, SVG Export Plug-In . SVG Version: 2.1.0 Build 146)  -->
  <defs>
    <style>
      .st0 {
        fill: #fffcac;
      }

      .st1 {
        fill: #7f81ff;
      }

      .st2 {
        fill: #fff;
      }

      .st3 {
        fill: #dbc0ba;
        stroke: #000;
        stroke-miterlimit: 10;
      }
    </style>
  </defs>
  <rect class="st3" x="132.4" y="0" width="1655.2" height="6002.2"/>
  <rect class="st1" y="0" width="132.4" height="6002.2"/>
  <rect class="st2" x="31.2" y="-.5" width="20.3" height="6001.1"/>
  <rect class="st2" x="79.8" y="0" width="21.8" height="5998.4"/>
  <rect class="st1" x="1787.6" y="0" width="132.4" height="6002.2"/>
  <rect class="st2" x="1871.8" y="0" width="18.7" height="6004.6"/>
  <rect class="st2" x="1815.9" y="0" width="18.7" height="6004.6"/>
  <path class="st0" d="M593.5,438h-3.2c0,46.5-37.7,84.1-84.1,84.1v4.8c46.5,0,84.1,37.7,84.1,84.1h3.2c0-46.5,37.7-84.1,84.1-84.1v-4.8c-46.5,0-84.1-37.7-84.1-84.1Z"/>
  <circle class="st0" cx="263" cy="255.6" r="91.8"/>
  <path class="st0" d="M956.7,552.1h-3.2c0,46.5-37.7,84.1-84.1,84.1v4.8c46.5,0,84.1,37.7,84.1,84.1h3.2c0-46.5,37.7-84.1,84.1-84.1v-4.8c-46.5,0-84.1-37.7-84.1-84.1h0Z"/>
  <path class="st0" d="M1369.1,432.7h-3.2c0,46.5-37.7,84.1-84.1,84.1v4.8c46.5,0,84.1,37.7,84.1,84.1h3.2c0-46.5,37.7-84.1,84.1-84.1v-4.8c-46.5,0-84.1-37.7-84.1-84.1Z"/>
  <path class="st0" d="M1668,163.8h-3.2c0,46.5-37.7,84.1-84.1,84.1v4.9c46.5,0,84.1,37.7,84.1,84.1h3.2c0-46.5,37.7-84.1,84.1-84.1v-4.9c-46.5,0-84.1-37.7-84.1-84.1h0Z"/>
  <ellipse class="st0" cx="282.1" cy="2734" rx="62.4" ry="57.2"/>
  <ellipse class="st0" cx="583.4" cy="2937.7" rx="62.4" ry="57.2"/>
  <ellipse class="st0" cx="928" cy="3029.6" rx="62.4" ry="57.2"/>
  <ellipse class="st0" cx="1305.5" cy="2929.2" rx="62.4" ry="57.2"/>
  <ellipse class="st0" cx="1630.7" cy="2725.5" rx="62.4" ry="57.2"/>
  <ellipse class="st0" cx="260.6" cy="4837" rx="62.4" ry="57.2"/>
  <ellipse class="st0" cx="561.8" cy="5040.6" rx="62.4" ry="57.2"/>
  <ellipse class="st0" cx="906.5" cy="5132.5" rx="62.4" ry="57.2"/>
  <ellipse class="st0" cx="1292.4" cy="5033.4" rx="62.4" ry="57.2"/>
  <ellipse class="st0" cx="1610.4" cy="4829.7" rx="62.4" ry="57.2"/>
</svg>