<?xml version="1.0" encoding="UTF-8"?>
<svg id="_レイヤー_1" xmlns="http://www.w3.org/2000/svg" version="1.1" viewBox="0 0 1920 6000">
  <!-- Generator: Adobe Illustrator 29.3.0, SVG Export Plug-In . SVG Version: 2.1.0 Build 146)  -->
  <defs>
    <style>
      .st0 {
        fill: #fffcac;
      }

      .st1 {
        fill: #7f81ff;
      }

      .st2 {
        fill: #fff;
      }
    </style>
  </defs>
  <rect class="st1" width="132.42" height="6002.17"/>
  <rect class="st2" x="31.21" y="-.53" width="20.31" height="6001.08"/>
  <rect class="st2" x="79.75" width="21.84" height="5998.43"/>
  <rect class="st1" x="1787.58" width="132.42" height="6002.17"/>
  <rect class="st2" x="1871.76" width="18.69" height="6004.6"/>
  <rect class="st2" x="1815.94" width="18.69" height="6004.6"/>
  <path class="st0" d="M593.46,438.01h-3.24c0,46.47-37.67,84.13-84.13,84.13v4.85c46.47,0,84.13,37.67,84.13,84.13h3.24c0-46.47,37.67-84.13,84.13-84.13v-4.85c-46.47,0-84.13-37.67-84.13-84.13Z"/>
  <circle class="st0" cx="262.99" cy="255.58" r="91.82"/>
  <path class="st0" d="M956.69,552.08h-3.24c0,46.47-37.67,84.13-84.13,84.13v4.85c46.47,0,84.13,37.67,84.13,84.13h3.24c0-46.47,37.67-84.13,84.13-84.13v-4.85c-46.47,0-84.13-37.67-84.13-84.13Z"/>
  <path class="st0" d="M1369.1,432.75h-3.24c0,46.47-37.67,84.13-84.13,84.13v4.85c46.47,0,84.13,37.67,84.13,84.13h3.24c0-46.47,37.67-84.13,84.13-84.13v-4.85c-46.47,0-84.13-37.67-84.13-84.13Z"/>
  <path class="st0" d="M1667.98,163.76h-3.24c0,46.47-37.67,84.13-84.13,84.13v4.85c46.47,0,84.13,37.67,84.13,84.13h3.24c0-46.47,37.67-84.13,84.13-84.13v-4.85c-46.47,0-84.13-37.67-84.13-84.13Z"/>
  <ellipse class="st0" cx="282.12" cy="2734" rx="62.38" ry="57.23"/>
  <ellipse class="st0" cx="583.37" cy="2937.7" rx="62.38" ry="57.23"/>
  <ellipse class="st0" cx="928.02" cy="3029.55" rx="62.38" ry="57.23"/>
  <ellipse class="st0" cx="1305.49" cy="2929.23" rx="62.38" ry="57.23"/>
  <ellipse class="st0" cx="1630.74" cy="2725.53" rx="62.38" ry="57.23"/>
  <ellipse class="st0" cx="260.58" cy="4836.96" rx="62.38" ry="57.23"/>
  <ellipse class="st0" cx="561.84" cy="5040.65" rx="62.38" ry="57.23"/>
  <ellipse class="st0" cx="906.49" cy="5132.51" rx="62.38" ry="57.23"/>
  <ellipse class="st0" cx="1292.43" cy="5033.37" rx="62.38" ry="57.23"/>
  <ellipse class="st0" cx="1610.39" cy="4829.68" rx="62.38" ry="57.23"/>
</svg>